HIERARCHY
ROOT ui
{
	 OFFSET 0 0 0
	 CHANNELS 3 XPosition YPosition Z Position
	 EndSite
	 {
	 OFFSET 0 -1 0
	 }
}
ROOT li
{
	 OFFSET 0 0 0
	 CHANNELS 3 XPosition YPosition Z Position
	 EndSite
	 {
	 OFFSET 0 -1 0
	 }
}
ROOT ul
{
	 OFFSET 0 0 0
	 CHANNELS 3 XPosition YPosition Z Position
	 EndSite
	 {
	 OFFSET 0 -1 0
	 }
}
ROOT ll
{
	 OFFSET 0 0 0
	 CHANNELS 3 XPosition YPosition Z Position
	 EndSite
	 {
	 OFFSET 0 -1 0
	 }
}
ROOT tt
{
	 OFFSET 0 0 0
	 CHANNELS 3 XPosition YPosition Z Position
	 EndSite
	 {
	 OFFSET 0 -1 0
	 }
}
ROOT tb
{
	 OFFSET 0 0 0
	 CHANNELS 3 XPosition YPosition Z Position
	 EndSite
	 {
	 OFFSET 0 -1 0
	 }
}
ROOT td
{
	 OFFSET 0 0 0
	 CHANNELS 3 XPosition YPosition Z Position
	 EndSite
	 {
	 OFFSET 0 -1 0
	 }
}
ROOT v
{
	 OFFSET 0 0 0
	 CHANNELS 3 XPosition YPosition Z Position
	 EndSite
	 {
	 OFFSET 0 -1 0
	 }
}
ROOT bn
{
	 OFFSET 0 0 0
	 CHANNELS 3 XPosition YPosition Z Position
	 EndSite
	 {
	 OFFSET 0 -1 0
	 }
}
MOTION
Frames: 21
Frame Time: 0.002
-0.013605134010314941	0.0012481080293655395	0		0.4832252807617187	-2.31520068359375	0		-1.186	-0.10197688293457031	0		-0.6196832275390625	-2.380298828125	0		1.781337890625	-0.49042416381835935	0		3.38654833984375	-0.16663919067382812	0		4.60457861328125	0.06602064514160157	0		5.82664794921875	0.337558837890625	0		-0.42644448852539063	5.8059150390625	0		
0.015645809173583984	0.0036026790142059326	0		0.45965005493164063	-2.310150390625	0		-1.177690673828125	-0.09543229675292969	0		-0.626142822265625	-2.36653125	0		1.7785216064453124	-0.49555545043945315	0		3.39881103515625	-0.16385916137695314	0		4.61478955078125	0.06590201568603515	0		5.818986328125	0.34313165283203123	0		-0.4256037292480469	5.804595703125	0		
0.012855341911315918	3.631319999694824E-4	0		0.4839589538574219	-2.315702880859375	0		-1.110543701171875	-0.10461114501953125	0		-0.5918316040039062	-2.37226806640625	0		1.7655968017578125	-0.5115726928710937	0		3.42805224609375	-0.16531369018554687	0		4.61503271484375	0.06587615966796875	0		5.8078603515625	0.3643052978515625	0		-0.44078530883789063	5.795482421875	0		
0.013133261680603027	8.658800274133683E-5	0		0.44746115112304685	-2.306497314453125	0		-1.1723680419921876	-0.11316844940185547	0		-0.6274139404296875	-2.370125244140625	0		1.756750244140625	-0.5236535034179688	0		3.394440185546875	-0.15700640869140625	0		4.6393681640625	0.07051789855957032	0		5.8115458984375	0.3486238098144531	0		-0.42665771484375	5.80500927734375	0		
-0.028520092010498047	0.003329962968826294	0		0.449885009765625	-2.3047822265625	0		-1.1761065673828126	-0.11744373321533202	0		-0.6270121459960938	-2.370428466796875	0		1.7530283203125	-0.5278106689453125	0		3.41365185546875	-0.16538250732421875	0		4.644583984375	0.06336560440063477	0		5.81734765625	0.3241587219238281	0		-0.42559811401367187	5.8037021484375	0		
0.018708215713500977	-0.005532471179962159	0		0.43628353881835935	-2.305874267578125	0		-1.165797119140625	-0.11988816833496094	0		-0.6156998901367188	-2.378865966796875	0		1.7501424560546874	-0.5469927978515625	0		3.459083984375	-0.15810369873046876	0		4.6669609375	0.06697134399414062	0		5.820517578125	0.33950076293945314	0		-0.45756216430664065	5.79580322265625	0		
0.02209758186340332	-0.0028544399738311766	0		0.5176351318359375	-2.31214599609375	0		-1.165441162109375	-0.12020733642578126	0		-0.611229248046875	-2.375218994140625	0		1.7874462890625	-0.5526834106445313	0		3.444565673828125	-0.14810397338867187	0		4.67647119140625	0.07970978546142578	0		5.82077001953125	0.33930038452148437	0		-0.42429446411132815	5.8020966796875	0		
-0.021381950378417967	0.009395713806152345	0		0.44327789306640625	-2.294501953125	0		-1.1631676025390625	-0.12855223083496095	0		-0.6277740478515625	-2.373316650390625	0		1.79461962890625	-0.5700145874023438	0		3.450839599609375	-0.1563816375732422	0		4.68276416015625	0.07346310424804688	0		5.82103466796875	0.3390508728027344	0		-0.42407180786132814	5.801794921875	0		
-0.0061875290870666505	-0.006087073802947998	0		0.5035093383789062	-2.311527099609375	0		-1.162784423828125	-0.12887786865234374	0		-0.6184754638671875	-2.38473974609375	0		1.79875439453125	-0.5913201293945313	0		3.465222412109375	-0.15677383422851562	0		4.6921171875	0.0711606903076172	0		5.807755859375	0.3391681518554687	0		-0.3046981201171875	5.81102197265625	0		
-0.016824987411499022	-0.008260300636291504	0		0.4609120483398437	-2.314296630859375	0		-1.1623955078125	-0.12921133422851563	0		-0.5861259155273437	-2.39245361328125	0		1.829991455078125	-0.60496875	0		3.489413818359375	-0.17330018615722656	0		4.70557421875	0.0767943115234375	0		5.81585107421875	0.33342977905273435	0		-0.4225887451171875	5.79915625	0		
0.0057592010498046875	0.007150055885314942	0		0.46135113525390625	-2.314605224609375	0		-1.1620030517578126	-0.12955473327636718	0		-0.619621337890625	-2.387368408203125	0		1.832075439453125	-0.6312708129882812	0		3.49299072265625	-0.15858207702636717	0		4.7239365234375	0.0743559112548828	0		5.82323583984375	0.327692138671875	0		-0.422322998046875	5.79882861328125	0		
-0.005920618057250976	9.678549766540527E-4	0		0.4658426513671875	-2.31097412109375	0		-1.1616075439453124	-0.12990940856933594	0		-0.5492799682617188	-2.39656689453125	0		1.8864166259765625	-0.6372206420898437	0		3.518189208984375	-0.17514053344726563	0		4.7483994140625	0.07983467864990235	0		5.820029296875	0.343014892578125	0		-0.4551265869140625	5.79289404296875	0		
0.012388944625854492	-0.0065925421714782715	0		0.4861797485351563	-2.320548095703125	0		-1.1723416748046875	-0.14114157104492187	0		-0.6227874145507812	-2.393017333984375	0		1.8715843505859375	-0.6573346557617188	0		3.546575439453125	-0.1767440185546875	0		4.7487939453125	0.07960062408447266	0		5.82324462890625	0.3581362609863281	0		-0.30068914794921875	5.805662109375	0		
-0.01500147247314453	0.010394193649291993	0		0.47773367309570314	-2.31278076171875	0		-1.0979556884765624	-0.1434244384765625	0		-0.55648095703125	-2.406188720703125	0		1.8977913818359375	-0.6749586791992187	0		3.539846435546875	-0.18792642211914062	0		4.77308056640625	0.07006919860839844	0		5.82128662109375	0.3370710144042969	0		-0.433673828125	5.78592333984375	0		
0.010157633781433105	-0.010275174140930175	0		0.4591012268066406	-2.320903564453125	0		-1.171530029296875	-0.14191949462890624	0		-0.6190713500976562	-2.41080322265625	0		1.9388817138671874	-0.7027732543945312	0		3.54025537109375	-0.18820262145996094	0		4.782470703125	0.06871514129638671	0		5.8293955078125	0.331273193359375	0		-0.419296630859375	5.79537451171875	0		
-0.004310853958129883	-4.74124014377594E-4	0		0.46363330078125	-2.316320556640625	0		-1.1482646484375	-0.15460977172851562	0		-0.6165730590820313	-2.409224853515625	0		1.948090576171875	-0.721208984375	0		3.58560546875	-0.1940325927734375	0		4.80392431640625	0.07220928192138672	0		5.83401953125	0.3411419677734375	0		-0.4511516418457031	5.78637158203125	0		
0.021100753784179686	-0.0011713650226593017	0		0.46411331176757814	-2.31670166015625	0		-1.1547857666015624	-0.1499530487060547	0		-0.6140662841796874	-2.40766162109375	0		1.9834495849609375	-0.7279706420898437	0		3.585133544921875	-0.18531263732910155	0		4.824322265625	0.07071087646484375	0		5.8271923828125	0.342689208984375	0		-0.45188031005859375	5.78797607421875	0		
-0.0034805250167846678	-0.0012773840427398682	0		0.48447930908203124	-2.32733642578125	0		-1.158400146484375	-0.15334848022460937	0		-0.6176233520507812	-2.412040283203125	0		1.9747567138671875	-0.7392086181640625	0		3.589241943359375	-0.21165716552734376	0		4.8306640625	0.06437887573242188	0		5.83531005859375	0.33687380981445314	0		-0.432691162109375	5.78332470703125	0		
0.01889900779724121	-0.004963532924652099	0		0.4569760437011719	-2.32740478515625	0		-1.1610137939453125	-0.15677218627929687	0		-0.620149658203125	-2.414446044921875	0		2.0217738037109374	-0.7751275024414063	0		3.602665283203125	-0.21211552429199218	0		4.844150390625	0.06996143341064454	0		5.835609375	0.3364815673828125	0		-0.2972477111816406	5.80026220703125	0		
-0.01961338233947754	0.001071571946144104	0		0.48141128540039063	-2.333109130859375	0		-1.160595458984375	-0.1572474365234375	0		-0.6107822265625	-2.4260087890625	0		2.028130126953125	-0.7825588989257812	0		3.640890869140625	-0.22887300109863282	0		4.858439453125	0.059536529541015626	0		5.8282138671875	0.36746478271484373	0		-0.4171566467285156	5.79125927734375	0		
-0.0062835531234741214	-0.005527279853820801	0		0.45796661376953124	-2.32824658203125	0		-1.2261939697265625	-0.15794631958007813	0		-0.594345703125	-2.431666748046875	0		2.056333984375	-0.802256103515625	0		3.6434814453125	-0.2141986083984375	0		4.88091015625	0.06501995086669922	0		5.84049853515625	0.34079327392578124	0		-0.4500619506835937	5.7841953125	0		
